<?xml version="1.0" encoding="utf-8"?>
<!-- Generator: Adobe Illustrator 17.1.0, SVG Export Plug-In . SVG Version: 6.00 Build 0)  -->
<!DOCTYPE svg PUBLIC "-//W3C//DTD SVG 1.1//EN" "http://www.w3.org/Graphics/SVG/1.1/DTD/svg11.dtd">
<svg version="1.1" id="Layer_1" xmlns="http://www.w3.org/2000/svg" xmlns:xlink="http://www.w3.org/1999/xlink" x="0px" y="0px"
	 viewBox="0 0 540 180" enable-background="new 0 0 540 180" xml:space="preserve">
<path fill-rule="evenodd" clip-rule="evenodd" d="M90,22.6c19.7-0.4,35.1,3.3,49.7,8.2c7.8,2.6,15.4,4.5,22.8,7.2
	c14.7,5.5,30,9,45.1,13.9c4,1.3,7.7,1.5,11.8,2.6c7.9,2.2,16.7,2.8,25.2,4.8c3.9,0.9,7.7,0.1,11.8,1c3.5,0.8,7.8-0.4,11.8,0.5
	c0.9,0.2,2.9,0.5,4.1,0.2c3.5-0.8,8.1,0.3,11.8-0.5c8-1.8,16.6-1.1,24.2-3.1c6.6-1.7,13.4-2.3,19.9-4.3c13.6-4.2,27.1-7.6,40.3-12
	c8.4-2.8,17.2-5.8,25.7-8.6c5.5-1.8,11.1-3,16.6-4.8c5.4-1.8,10.7-1.9,16.6-3.4c6.2-1.5,18.2-2.8,25.4-1.2c2,0.2,4,0.3,6,0.5
	c5.3,1.3,10.8,1.9,15.6,3.8c19.8,8.1,33.2,19.6,40.1,40.6c2.8,8.5,5.1,24.2,2.4,35c-7.1,28.3-21.9,42.5-48.5,51.1
	c-3.6,1.2-8,1.9-12,2.9c-2.5,0.2-5,0.3-7.4,0.5c-2.3,0.5-6.6,0.5-8.9,0c-1,0-2.1,0-3.1,0c-8.2-1.9-16.3-2.1-23.8-4.6
	c-23.9-7.8-47.3-14.6-71-22.3c-8.2-2.7-16.5-3.7-25.2-6c-12.8-3.4-27.4-5.2-43-5.3c-4.3,0-9.7-0.7-13.9,0.2c-1.4,0-2.7,0-4.1,0
	c-2.4,0.5-5.3,0.1-7.9,0.7c-8.3,1.9-17,1.8-25,4.1c-5.2,1.5-10.8,2.1-16.1,3.8c-14.6,4.8-29.5,8.5-43.4,13.7c-3,1.1-5.9,1.5-8.9,2.6
	c-10.3,3.8-21.5,6.7-32.6,9.8c-4.7,1.3-9.1,1.2-14.2,2.4c-5.6,1.3-15.3,1.9-21.4,0.5c-1.6-0.1-3.2-0.2-4.8-0.2
	c-7.2-1.7-14.2-2.3-20.4-4.8C41.4,144,31.1,132.8,25,110.9c-0.8-2.9-1.2-6.5-1.9-9.6c-0.1-1.9-0.2-3.8-0.2-5.8
	c-0.4-2.1-0.8-8.4-0.2-10.8c1.4-6.4,1-13,2.9-18.7c2.9-8.8,6.8-15.7,11.8-22.3c1.3-1.7,3.3-3.3,5-4.6c2.1-1.6,4-3.6,6.2-5
	c6.9-4.4,15.1-6.9,24-9.4c3.7-0.6,7.4-1.1,11-1.7C85.4,22.6,88.5,23.5,90,22.6z"/>
</svg>
