<?xml version="1.0" encoding="utf-8"?>
<!-- Generator: Adobe Illustrator 17.1.0, SVG Export Plug-In . SVG Version: 6.00 Build 0)  -->
<!DOCTYPE svg PUBLIC "-//W3C//DTD SVG 1.1//EN" "http://www.w3.org/Graphics/SVG/1.1/DTD/svg11.dtd">
<svg version="1.1" id="Layer_1" xmlns="http://www.w3.org/2000/svg" xmlns:xlink="http://www.w3.org/1999/xlink" x="0px" y="0px"
	 viewBox="267.8 0 1384.5 462" enable-background="new 267.8 0 1384.5 462" xml:space="preserve">
<path d="M497.5,0C557.3-1,604,10.5,648.4,25.2c40,13.3,79.6,25.2,118.8,38.2c25.9,8.7,52.6,14.1,79.6,21.6
	c12.8,2.6,25.9,4.9,38.8,7.4c16.4,4.1,35.4,1.8,52.4,5.6c5.6,0,11.5,0,17.2,0c12.3,0,26.4,1.3,37-1.3c11.5-2.6,23.4-0.3,34.4-3.1
	c24.4-5.9,49-7.7,72.1-14.9c17.5-5.4,35.2-9,52.4-14.9c56.7-19,112.9-36.7,172.5-53.6c15.4-4.4,31.8-4.9,48-8.7
	c7.2-1.5,14.9-0.3,21.6-1.8c6.2-1.3,22.6-0.5,27.7,0.5c3.3,0,6.7,0,9.8,0c5.4,1.3,11.6,0.5,17.2,1.8c18.2,4.4,36.4,6.9,52.4,12.8
	c10.3,3.8,19.2,6.9,29,11c42.6,18.7,84.7,61.3,103.4,104.2c4.6,10.5,7.2,20.8,11,32.6c3.8,11.6,4.9,25.4,8,38.8
	c0.3,5.1,0.5,10.3,0.5,15.4c1.5,6.9,1.5,28.7,0,35.7c-3.3,14.4-3.1,28.7-7.4,41.8c-22.8,69.8-65.7,117.3-129.9,145.3
	c-12.3,5.4-24.4,8.2-38.2,12.3c-33.4,10-89.6,13.3-126.8,3.6c-15.7-3.6-31.3-7.4-46.7-11c-33.6-11-67-20.3-100.4-31.3
	c-77.8-26.2-153.7-50.6-258.2-50.6c-22.1,0-45.2,2.1-64.2,6.7c-11.3,2.8-21.8,2.6-32.6,5.6c-22.6,6.4-46.5,11.3-67.8,18.5
	c-9.2,3.1-17.5,4.4-26.4,7.4c-33.4,11-66.5,22.1-99.8,33.4c-10.5,3.6-20.5,5.1-31.3,8.7c-57,19.3-141.9,26.7-203.8,6.2
	c-65.7-21.8-109.9-60.8-135.5-122.7c-4.9-11.5-6.4-23.4-9.8-36.4c-2.3-8.5-2.8-18.7-4.9-27.7c-0.3-5.6-0.5-11-0.5-16.7
	c-1.5-7.7-1.8-22.6,0-30.3c0.3-5.6,0.5-11.5,0.5-17.2c3.9-17.2,4.6-34.6,9.8-50.3c9.8-29.5,23.9-51.8,40.6-73.9
	c4.1-5.4,12.3-12.3,18-16.7c8.5-6.4,16.2-13.9,25.2-19.8c22.3-13.9,48.3-22.1,76.5-30c12.8-3.6,26.7-3.1,40-6.2
	C483.9,0,492.9,2.8,497.5,0z"/>
</svg>
