<?xml version="1.0" encoding="utf-8"?>
<!-- Generator: Adobe Illustrator 17.1.0, SVG Export Plug-In . SVG Version: 6.00 Build 0)  -->
<!DOCTYPE svg PUBLIC "-//W3C//DTD SVG 1.1//EN" "http://www.w3.org/Graphics/SVG/1.1/DTD/svg11.dtd">
<svg version="1.1" id="Layer_1" xmlns="http://www.w3.org/2000/svg" xmlns:xlink="http://www.w3.org/1999/xlink" x="0px" y="0px"
	 viewBox="0 0 540 180" enable-background="new 0 0 540 180" xml:space="preserve">
<g>
	<path fill-rule="evenodd" clip-rule="evenodd" d="M148.6,9.8c15.6,5.2,31,9.8,46.3,14.9c10.1,3.4,20.5,5.5,31,8.4
		c5,1,10.1,1.9,15.1,2.9c6.4,1.6,13.8,0.7,20.4,2.2c2.2,0,4.5,0,6.7,0c4.8,0,10.3,0.5,14.4-0.5c4.5-1,9.1-0.1,13.4-1.2
		c9.5-2.3,19.1-3,28.1-5.8c6.8-2.1,13.7-3.5,20.4-5.8c22.1-7.4,44-14.3,67.2-20.9c6-1.7,12.4-1.9,18.7-3.4c2.8-0.6,5.8-0.1,8.4-0.7
		H95.2C115.9,0.3,132.7,4.5,148.6,9.8z"/>
	<path fill-rule="evenodd" clip-rule="evenodd" d="M539.8,98.6c-1.3,5.6-1.2,11.2-2.9,16.3c-8.9,27.2-25.6,45.7-50.6,56.6
		c-4.8,2.1-9.5,3.2-14.9,4.8c-6.5,1.9-15.1,3.2-24,3.6H540V97C539.9,97.6,539.9,98.2,539.8,98.6z"/>
	<path fill-rule="evenodd" clip-rule="evenodd" d="M449.5,0.2c1.3,0,2.6,0,3.8,0c2.1,0.5,4.5,0.2,6.7,0.7c7.1,1.7,14.2,2.7,20.4,5
		c4,1.5,7.5,2.7,11.3,4.3c16.6,7.3,33,23.9,40.3,40.6c1.8,4.1,2.8,8.1,4.3,12.7c1.5,4.5,1.9,9.9,3.1,15.1c0.1,2,0.2,4,0.2,6
		c0.1,0.4,0.2,1.1,0.2,1.8V0h-92C448.6,0.1,449.1,0.2,449.5,0.2z"/>
	<path fill-rule="evenodd" clip-rule="evenodd" d="M0.2,84c0.1-2.2,0.2-4.5,0.2-6.7C2,70.5,2.3,63.7,4.3,57.6
		c3.8-11.5,9.3-20.2,15.8-28.8c1.6-2.1,4.8-4.8,7-6.5c3.3-2.5,6.3-5.4,9.8-7.7C45.6,9.2,55.7,6,66.7,2.9c5-1.4,10.4-1.2,15.6-2.4
		C84.5,0,88,1.1,89.8,0H0v85.4C0.1,84.9,0.1,84.4,0.2,84z"/>
	<path fill-rule="evenodd" clip-rule="evenodd" d="M421.9,177.8c-6.1-1.4-12.2-2.9-18.2-4.3c-13.1-4.3-26.1-7.9-39.1-12.2
		c-30.3-10.2-59.9-19.7-100.6-19.7c-8.6,0-17.6,0.8-25,2.6c-4.4,1.1-8.5,1-12.7,2.2c-8.8,2.5-18.1,4.4-26.4,7.2
		c-3.6,1.2-6.8,1.7-10.3,2.9c-13,4.3-25.9,8.6-38.9,13c-4.1,1.4-8,2-12.2,3.4C116.2,180.1,83.1,183,59,175
		c-25.6-8.5-42.8-23.7-52.8-47.8c-1.9-4.5-2.5-9.1-3.8-14.2c-0.9-3.3-1.1-7.3-1.9-10.8c-0.1-2.2-0.2-4.3-0.2-6.5
		c-0.1-0.4-0.2-0.9-0.2-1.5V180h438C432.3,179.8,426.7,179.1,421.9,177.8z"/>
</g>
</svg>
