<?xml version="1.0" encoding="utf-8"?>
<!-- Generator: Adobe Illustrator 17.1.0, SVG Export Plug-In . SVG Version: 6.00 Build 0)  -->
<!DOCTYPE svg PUBLIC "-//W3C//DTD SVG 1.1//EN" "http://www.w3.org/Graphics/SVG/1.1/DTD/svg11.dtd">
<svg version="1.1" id="Layer_1" xmlns="http://www.w3.org/2000/svg" xmlns:xlink="http://www.w3.org/1999/xlink" x="0px" y="0px"
	 viewBox="0 0 540 180" enable-background="new 0 0 540 180" xml:space="preserve">
<path fill-rule="evenodd" clip-rule="evenodd" d="M87.6,9.1c26-0.5,44.8,4.7,63.8,11c14.3,4.8,28.4,9,42.5,13.7
	c9.9,3.3,20.2,5.3,30.5,8.2c5,1,10.1,1.9,15.1,2.9c5.4,0.6,10.7,1.3,16.1,1.9c2.6,0.6,5.5-0.1,7.9,0.5c1.5,0,3,0,4.6,0
	c4.4,0,9.2,0.4,13-0.5c3.6-0.8,7.3,0.1,10.8-0.7c9.8-2.3,19.8-2.6,29-5.3c8.1-2.3,16.5-4,24.5-6.7c13.8-4.6,27.8-9.1,41.5-13.7
	c6.2-2.1,12.6-3.5,18.7-5.5c7.2-2.3,14.9-3,22.6-4.8c3-0.7,6.1-0.3,8.9-1c3.4,0,6.7,0,10.1,0c10.2,0,19.3,1.8,27.1,4.3
	c24.8,8.2,41.7,22.1,51.4,45.4c1.5,3.6,2,7.2,3.1,11.3c2.9,10.6,3.3,28.5,0.2,39.4c-8.8,31.1-27.5,47.8-57.6,57.6
	c-7.1,2.3-15.4,3.8-24.7,3.8c-3,0-6.1,0-9.1,0c-2.1-0.5-4.5-0.2-6.7-0.7c-6.1-1.5-12.4-1.8-18.2-3.6c-24-7.3-47.1-14.3-70.6-22.1
	c-7.6-2.5-15.1-3.5-23-5.8c-5.8-1.6-12.4-2.4-18.5-3.8c-3.7-0.9-7.5-0.6-11-1.4c-2.9-0.7-6.3-0.5-9.1-0.7c-1.4,0-2.9,0-4.3,0
	c-4.2-0.9-13.6-0.6-17.5,0.2c-2.1,0.1-4.2,0.2-6.2,0.2c-3.2,0.7-6.7,0.4-10.1,1.2c-7.2,1.7-14.6,2.1-21.6,4.1
	c-7.5,2.1-15.2,3.5-22.6,6c-16.2,5.4-32.2,10.2-48.5,15.6c-7.5,2.5-15.6,4.7-23.5,7c-3.4,1-7,1.3-10.3,2.2
	c-4.3,1.1-8.6,0.5-13.2,1.4c-4.7,1-16.3,0.5-20.4-0.5c-1.9-0.2-3.8-0.3-5.8-0.5c-8.3-2-16.2-3.4-23.3-6.5c-16-7-29.5-18.7-36.5-34.6
	c-1.7-3.9-2.7-7.6-4.1-12c-2.3-7.1-3.4-15.4-3.4-24.7c0-3.2,0-6.4,0-9.6c0.4-1.6,0.1-3.7,0.5-5.5c1.2-5,1.3-10.2,2.9-14.9
	c3.3-10,7.6-18.2,13.2-25.7c2-2.6,4.8-5.2,7.4-7.2c1.8-1.4,3.4-3.2,5.3-4.6c7.7-5.4,16.8-8.9,26.9-12c4.5-1.4,9.4-1.6,14.2-2.6
	C81.5,9.4,86.1,10.1,87.6,9.1z"/>
</svg>
